<svg width="187" height="33" viewBox="0 0 187 33" fill="none" xmlns="http://www.w3.org/2000/svg">
<path fill-rule="evenodd" clip-rule="evenodd" d="M3.62969 11.2353L0.813866 11.3476L0.462109 12.8125C0.268554 13.6182 0.0853541 14.541 0.0550807 14.8633L0 15.4492L4.59629 15.5016L9.19258 15.5537L8.08848 20.0914C5.92051 28.9996 5.37109 31.3137 5.37109 31.5342C5.37109 31.6943 6.425 31.7578 9.08203 31.7578C12.1061 31.7578 12.793 31.708 12.793 31.4885C12.793 31.3402 13.5863 27.8906 14.5559 23.8225C15.5254 19.7543 16.3621 16.2281 16.415 15.9863C16.5104 15.5519 16.5486 15.5469 19.7914 15.5469H23.0713L23.5174 18.7207C24.1334 23.1027 24.2803 24.2012 24.6938 27.5191C25.1914 31.5115 25.4449 31.7578 29.0537 31.7578C31.1711 31.7578 31.3119 31.732 32.1752 31.1846C32.809 30.7826 33.3602 30.1672 34.0199 29.1248C34.5375 28.3072 35.5762 26.6945 36.3281 25.5412C37.0801 24.3879 38.3957 22.3682 39.2516 21.0527C40.4402 19.2262 40.8383 18.7437 40.9369 19.0105C41.1641 19.6242 42.1938 26.3221 42.4014 28.5351C42.6531 31.2189 43.3217 31.756 46.4117 31.757C48.7865 31.758 49.541 31.5281 50.5256 30.5039C50.8811 30.1342 52.3988 27.9141 53.8984 25.5701C57.859 19.3797 60.365 15.5195 61.8639 13.3008L63.1832 11.3476L60.0242 11.2937C58.2869 11.2642 56.8008 11.3082 56.7217 11.3914C56.6428 11.4748 56.0969 12.334 55.5088 13.3008C54.9207 14.2676 53.7598 16.1572 52.9289 17.5C52.098 18.8428 50.8576 20.8642 50.1725 21.9922C48.0687 25.4551 48.2963 25.524 47.7887 21.2689C46.9865 14.5439 46.6486 12.7264 46.074 12.0435C45.4322 11.2807 44.1914 10.9781 42.2115 11.1017C39.3043 11.283 39.5352 11.051 34.8748 18.4766C33.7623 20.249 32.5273 22.1826 32.1307 22.7734C31.7338 23.3642 31.2422 24.1113 31.0381 24.4336L30.6672 25.0195L30.5336 23.5547C30.46 22.749 30.3008 21.3867 30.1797 20.5273C30.0588 19.668 29.8738 18.1738 29.7687 17.207C29.5395 15.0945 29.4898 14.7142 29.1895 12.7637L28.9563 11.25H18.2623C12.3807 11.25 7.31562 11.2215 7.00684 11.1865C6.69805 11.1517 5.17832 11.1736 3.62969 11.2353ZM63.6768 11.6894C63.6217 11.9312 63.2301 13.7549 62.8068 15.7422C62.0445 19.3205 61.0951 23.4338 60.5529 25.5078C60.3984 26.0986 60.0445 27.5928 59.7662 28.8281C59.4879 30.0635 59.2143 31.2281 59.158 31.416C59.0631 31.7332 59.3242 31.7578 62.7799 31.7578C64.8281 31.7578 66.5039 31.6908 66.5039 31.6088C66.5039 31.3678 67.5863 26.4668 68.4553 22.7734C70.0277 16.0892 70.9961 11.8039 70.9961 11.5289C70.9961 11.2973 70.3838 11.25 67.3865 11.25C63.8031 11.25 63.7762 11.2531 63.6768 11.6894ZM74.2275 11.9824C74.1549 12.3853 73.6939 14.4287 73.2033 16.5234C72.7127 18.6182 72.2412 20.6836 72.1555 21.1133C72.0699 21.543 71.6365 23.3887 71.1924 25.2148C70.7484 27.041 70.2646 29.1064 70.1174 29.8047C69.9703 30.5029 69.7906 31.2281 69.7184 31.416C69.5963 31.7342 69.8436 31.7578 73.2891 31.7578H76.9908L77.5121 29.7559C78.267 26.8566 80.6074 16.9301 80.7154 16.1691L80.8074 15.5217L85.4232 15.5832C89.4748 15.6371 90.1297 15.6894 90.7801 16.0127C92.0637 16.6504 92.3328 17.6732 91.8135 19.9414C91.6658 20.5859 91.3252 22.0801 91.0563 23.2617C90.7875 24.4434 90.2508 26.7674 89.8639 28.4264C89.4768 30.0853 89.1602 31.5162 89.1602 31.6062C89.1602 31.6961 95.7301 31.7434 103.76 31.7111C116.955 31.6584 118.469 31.6201 119.498 31.3131C123.083 30.2436 125.099 28.2781 125.424 25.5346C125.576 24.2482 125.217 23.273 124.225 22.2812C122.818 20.8742 121.436 20.4621 112.695 18.8428C110.868 18.5041 109.527 18.0932 109.28 17.7967C109.157 17.6475 109.083 17.2342 109.118 16.8779C109.167 16.3617 109.318 16.1613 109.863 15.8891C110.486 15.5777 111.4 15.5475 120.179 15.5473C129.26 15.5469 129.806 15.5664 129.713 15.8887C129.611 16.2465 128.747 19.8254 128.014 22.9326C127.087 26.8619 128.081 29.1986 131.403 30.8967C133.184 31.8072 135.506 32.1457 139.98 32.1473C145.146 32.149 148.475 31.4256 150.927 29.7684C153.532 28.0076 154.239 26.7752 155.452 21.8801C156.322 18.3693 157.91 11.5752 157.91 11.3631C157.91 11.301 156.281 11.25 154.291 11.25C151.563 11.25 150.654 11.3101 150.6 11.4941C150.561 11.6285 150.114 13.4961 149.608 15.6445C149.102 17.793 148.47 20.4297 148.202 21.5039C147.935 22.5781 147.677 23.6654 147.629 23.9201C147.472 24.7572 146.801 25.8506 146.079 26.4459C144.983 27.3492 143.938 27.5586 140.527 27.5586C137.961 27.5586 137.388 27.5029 136.764 27.1928C134.997 26.3148 134.85 25.1625 135.929 20.625C137.362 14.5967 138.005 11.9269 138.106 11.5918C138.204 11.2683 137.44 11.25 123.946 11.25C110.377 11.25 109.602 11.2689 108.01 11.6402C104.298 12.5057 102.185 14.2674 101.618 16.9699C101.327 18.3596 101.612 19.3771 102.599 20.4723C103.932 21.951 105.842 22.5783 113.138 23.934C116.459 24.5512 117.326 24.8543 117.684 25.5228C117.96 26.0391 117.539 26.726 116.649 27.2127C116.072 27.5275 115.171 27.5641 106.593 27.6193C98.8877 27.6689 97.1871 27.6334 97.2588 27.424C97.307 27.2832 97.7896 25.3639 98.3314 23.1588C99.5045 18.3838 99.6148 16.683 98.8568 15.0586C98.3818 14.0404 97.2348 12.8637 96.1916 12.3244C95.8568 12.1512 94.9146 11.8385 94.098 11.6297C92.7314 11.2803 91.8867 11.25 83.4865 11.25H74.36L74.2275 11.9824ZM160.092 15.5973C159.52 17.9865 158.628 21.7432 158.11 23.9453C157.592 26.1475 156.984 28.6469 156.758 29.4996C156.102 31.9781 155.792 31.7578 159.938 31.7578C163.496 31.7578 163.53 31.7539 163.647 31.3184C163.712 31.0768 164.522 27.7588 165.448 23.9453C166.373 20.1318 167.213 16.6822 167.313 16.2793L167.496 15.5469H171.749C176.365 15.5469 177.596 15.7371 178.36 16.5687C179.249 17.5365 179.233 17.675 177.401 25.3125C176.873 27.5146 176.364 29.7119 176.271 30.1953C176.178 30.6787 176.042 31.2281 175.969 31.416C175.846 31.7342 176.095 31.7578 179.569 31.7578C181.621 31.7578 183.301 31.7185 183.301 31.6705C183.301 31.6225 183.687 30.0185 184.159 28.106C186.16 20.0025 186.328 19.1873 186.313 17.6953C186.288 15.1767 185.236 13.5029 182.952 12.3455C180.873 11.292 180.39 11.2498 170.382 11.2516L161.133 11.2531L160.092 15.5973Z" fill="white"/>
<circle cx="69.0664" cy="4" r="4" fill="#0099FF"/>
<circle cx="79.0664" cy="4" r="4" fill="#0300C9"/>
</svg>
